<svg xmlns="http://www.w3.org/2000/svg" viewBox="0 0 640 300" font-family="sans-serif" font-size="12">
<rect width="640" height="300" fill="white"/>
<text x="320.0" y="22" text-anchor="middle" font-size="14" font-weight="bold">double precision, OPENMP, 64³</text>
<line x1="70" x2="620" y1="205.0" y2="205.0" stroke="#ddd"/>
<text x="64" y="209.0" text-anchor="end">0</text>
<line x1="70" x2="620" y1="163.75" y2="163.75" stroke="#ddd"/>
<text x="64" y="167.75" text-anchor="end">12.6</text>
<line x1="70" x2="620" y1="122.5" y2="122.5" stroke="#ddd"/>
<text x="64" y="126.5" text-anchor="end">25.2</text>
<line x1="70" x2="620" y1="81.25" y2="81.25" stroke="#ddd"/>
<text x="64" y="85.25" text-anchor="end">37.8</text>
<line x1="70" x2="620" y1="40.0" y2="40.0" stroke="#ddd"/>
<text x="64" y="44.0" text-anchor="end">50.4</text>
<text x="14" y="122.5" transform="rotate(-90 14 122.5)" text-anchor="middle">ms / iteration</text>
<rect x="87.41666666666667" y="61.52173913043475" width="56.833333333333336" height="143.47826086956525" fill="#4c78a8"/>
<text x="115.83333333333334" y="56.52173913043475" text-anchor="middle">43.8</text>
<line x1="115.83333333333334" x2="115.83333333333334" y1="13.06815645229294" y2="109.97532180857657" stroke="#333"/>
<text x="115.83333333333334" y="221" text-anchor="middle">unfused</text>
<rect x="179.08333333333334" y="79.46266028423322" width="56.833333333333336" height="125.53733971576678" fill="#bab0ac"/>
<text x="207.5" y="74.46266028423322" text-anchor="middle">38.3</text>
<line x1="207.5" x2="207.5" y1="61.44316575311885" y2="97.4821548153476" stroke="#333"/>
<text x="207.5" y="221" text-anchor="middle">adjacent</text>
<text x="207.5" y="235" text-anchor="middle">same-range</text>
<rect x="270.74999999999994" y="94.04293261241595" width="56.833333333333336" height="110.95706738758405" fill="#bab0ac"/>
<text x="299.16666666666663" y="89.04293261241595" text-anchor="middle">33.9</text>
<line x1="299.16666666666663" x2="299.16666666666663" y1="70.37597658672087" y2="117.70988863811104" stroke="#333"/>
<text x="299.16666666666663" y="221" text-anchor="middle">adjacent</text>
<text x="299.16666666666663" y="235" text-anchor="middle">guarded</text>
<rect x="362.41666666666663" y="90.84597832287507" width="56.833333333333336" height="114.15402167712493" fill="#bab0ac"/>
<text x="390.8333333333333" y="85.84597832287507" text-anchor="middle">34.9</text>
<line x1="390.8333333333333" x2="390.8333333333333" y1="85.61430094992436" y2="96.07765569582578" stroke="#333"/>
<text x="390.8333333333333" y="221" text-anchor="middle">DAG</text>
<text x="390.8333333333333" y="235" text-anchor="middle">same-range</text>
<rect x="454.0833333333333" y="75.25243681638929" width="56.833333333333336" height="129.7475631836107" fill="#54a24b"/>
<text x="482.5" y="70.25243681638929" text-anchor="middle">39.6</text>
<line x1="482.5" x2="482.5" y1="34.35990475954265" y2="116.14496887323594" stroke="#333"/>
<text x="482.5" y="221" text-anchor="middle">DAG</text>
<text x="482.5" y="235" text-anchor="middle">guarded</text>
<rect x="545.7500000000001" y="89.33671470026539" width="56.833333333333336" height="115.66328529973461" fill="#bab0ac"/>
<text x="574.1666666666667" y="84.33671470026539" text-anchor="middle">35.3</text>
<line x1="574.1666666666667" x2="574.1666666666667" y1="58.49502715841167" y2="120.1784022421191" stroke="#333"/>
<text x="574.1666666666667" y="221" text-anchor="middle">DAG</text>
<text x="574.1666666666667" y="235" text-anchor="middle">guarded</text>
<text x="574.1666666666667" y="249" text-anchor="middle">latest</text>
</svg>